<svg width="128" height="128" viewBox="0 0 128 128" fill="none" xmlns="http://www.w3.org/2000/svg">
<circle cx="64" cy="64" r="62" fill="#D4DD7D" stroke="#F9F6E9" stroke-width="4"/>
<path d="M14.8535 78.6094C12.5065 74.8952 11.333 70.5771 11.333 65.6553C11.333 60.7334 12.5635 56.3584 15.0244 52.5303C17.4854 48.7021 20.8008 45.7741 24.9707 43.7461C29.1634 41.7181 33.8232 40.7041 38.9502 40.7041C43.348 40.7041 47.5065 41.3877 51.4258 42.7549C53.431 43.4613 55.0602 44.4753 56.3135 45.7969C57.5895 47.0957 58.2275 48.5882 58.2275 50.2744C58.2275 51.9606 57.7035 53.2139 56.6553 54.0342C55.6071 54.8545 54.3652 55.2646 52.9297 55.2646C51.5169 55.2646 50.5029 55.1507 49.8877 54.9229C49.637 51.391 48.6117 48.7591 46.8115 47.0273C45.0114 45.2728 42.334 44.3955 38.7793 44.3955C32.7865 44.3955 28.0127 46.1956 24.458 49.7959C20.9261 53.3962 19.1602 58.0902 19.1602 63.8779C19.1602 67.7744 20.0033 71.3291 21.6895 74.542C23.3757 77.7321 25.734 80.2614 28.7646 82.1299C31.818 83.9984 35.2474 84.9326 39.0527 84.9326C41.6048 84.9326 43.8835 84.6364 45.8887 84.0439C49.6712 82.9274 51.5853 81.526 51.6309 79.8398C51.6536 79.2246 51.665 78.4727 51.665 77.584V73.5166C51.665 73.152 51.5967 72.5596 51.46 71.7393C51.3232 70.9189 51.2321 70.3265 51.1865 69.9619C51.1637 69.5973 50.8561 69.2441 50.2637 68.9023C49.694 68.5605 49.0788 68.3213 48.418 68.1846C46.6406 67.82 45.752 67.3643 45.752 66.8174C45.752 66.2705 45.8659 65.8148 46.0938 65.4502C46.3444 65.0628 46.7204 64.7552 47.2217 64.5273C47.7458 64.2995 48.2585 64.1172 48.7598 63.9805C49.2611 63.821 49.9333 63.707 50.7764 63.6387C51.9613 63.5703 53.7158 63.5361 56.04 63.5361C58.387 63.5361 60.0049 63.6159 60.8936 63.7754C63.0355 64.1855 64.1064 65.1768 64.1064 66.749C64.1064 67.0908 63.9469 67.3301 63.6279 67.4668C63.3089 67.6035 63.0583 67.7061 62.876 67.7744C62.7165 67.82 62.5 67.877 62.2266 67.9453C60.3353 68.401 59.196 69.0391 58.8086 69.8594C58.444 70.6797 58.2731 72.1266 58.2959 74.2002L58.3984 83.7363C57.5781 83.987 56.359 84.5566 54.7412 85.4453C53.1234 86.3112 51.9954 86.8809 51.3574 87.1543C46.9824 89 42.391 89.9229 37.583 89.9229C32.7979 89.9229 28.4001 88.9658 24.3896 87.0518C20.3792 85.1149 17.2005 82.3008 14.8535 78.6094ZM113.701 85.958C113.701 87.0062 113.052 87.7809 111.753 88.2822C110.454 88.7607 109.03 89 107.48 89H107.07C104.108 89 102.228 88.8861 101.431 88.6582C100.656 88.4303 100.018 88.2025 99.5166 87.9746C98.514 87.4733 98.0127 86.6644 98.0127 85.5479C98.0127 85.0465 98.6165 84.7617 99.8242 84.6934C101.055 84.625 101.67 84.2376 101.67 83.5312C101.67 83.2806 101.453 82.7337 101.021 81.8906H101.055L97.2949 72.9355H77.1631C74.7249 79.3613 73.5059 82.859 73.5059 83.4287C73.5059 83.9984 73.654 84.3288 73.9502 84.4199L73.916 84.3857C74.0755 84.4769 74.4629 84.6022 75.0781 84.7617C76.6048 85.1263 77.3682 85.5251 77.3682 85.958C77.3682 87.986 74.8047 89 69.6777 89C65.4167 89 63.2861 87.986 63.2861 85.958C63.2861 85.5251 64.0495 85.0921 65.5762 84.6592C67.1257 84.2262 68.2194 83.1553 68.8574 81.4463L82.7002 45.25C82.4723 44.6348 82.3584 44.0993 82.3584 43.6436C82.3584 41.889 84.1471 41.0117 87.7246 41.0117C90.5957 41.0117 92.4528 42.1055 93.2959 44.293L107.72 81.207C108.54 83.1667 109.793 84.2832 111.479 84.5566C112.55 84.7161 113.188 84.8984 113.394 85.1035C113.599 85.2858 113.701 85.5706 113.701 85.958ZM78.4961 69.6543H95.9277L87.041 45.25L78.4961 69.6543Z" fill="#306B21"/>
</svg>
