<svg width="853" height="87" viewBox="0 0 853 87" fill="none" xmlns="http://www.w3.org/2000/svg">
<path d="M5.37891 53.3438C2.29427 48.4622 0.751953 42.7871 0.751953 36.3184C0.751953 29.8496 2.36914 24.0996 5.60352 19.0684C8.83789 14.0371 13.1953 10.1888 18.6758 7.52344C24.1862 4.85807 30.3105 3.52539 37.0488 3.52539C42.8288 3.52539 48.2943 4.42383 53.4453 6.2207C56.0807 7.14909 58.222 8.48177 59.8691 10.2188C61.5462 11.9258 62.3848 13.8874 62.3848 16.1035C62.3848 18.3197 61.696 19.9668 60.3184 21.0449C58.9408 22.123 57.3086 22.6621 55.4219 22.6621C53.5651 22.6621 52.2324 22.5124 51.4238 22.2129C51.0944 17.571 49.7467 14.112 47.3809 11.8359C45.015 9.52995 41.4961 8.37695 36.8242 8.37695C28.9479 8.37695 22.6738 10.7428 18.002 15.4746C13.36 20.2064 11.0391 26.3757 11.0391 33.9824C11.0391 39.1035 12.1471 43.7754 14.3633 47.998C16.5794 52.1908 19.679 55.515 23.6621 57.9707C27.6751 60.4264 32.1823 61.6543 37.1836 61.6543C40.5378 61.6543 43.5326 61.265 46.168 60.4863C51.1393 59.0189 53.6549 57.1771 53.7148 54.9609C53.7448 54.1523 53.7598 53.1641 53.7598 51.9961V46.6504C53.7598 46.1712 53.6699 45.3926 53.4902 44.3145C53.3105 43.2363 53.1908 42.4577 53.1309 41.9785C53.1009 41.4993 52.6966 41.0352 51.918 40.5859C51.1693 40.1367 50.3607 39.8223 49.4922 39.6426C47.1562 39.1634 45.9883 38.5645 45.9883 37.8457C45.9883 37.127 46.138 36.528 46.4375 36.0488C46.7669 35.5397 47.2611 35.1354 47.9199 34.8359C48.6087 34.5365 49.2826 34.2969 49.9414 34.1172C50.6003 33.9076 51.4837 33.7578 52.5918 33.668C54.1491 33.5781 56.4551 33.5332 59.5098 33.5332C62.5944 33.5332 64.7207 33.638 65.8887 33.8477C68.7038 34.3867 70.1113 35.6895 70.1113 37.7559C70.1113 38.2051 69.9017 38.5195 69.4824 38.6992C69.0632 38.8789 68.7337 39.0137 68.4941 39.1035C68.2845 39.1634 68 39.2383 67.6406 39.3281C65.1549 39.9271 63.6576 40.7656 63.1484 41.8438C62.6693 42.9219 62.4447 44.8236 62.4746 47.5488L62.6094 60.082C61.5312 60.4115 59.929 61.1602 57.8027 62.3281C55.6764 63.4661 54.194 64.2148 53.3555 64.5742C47.6055 67 41.571 68.2129 35.252 68.2129C28.9629 68.2129 23.1829 66.9551 17.9121 64.4395C12.6413 61.8939 8.46354 58.1953 5.37891 53.3438ZM79.8145 38.5195C78.7064 38.5195 77.4486 38.0853 76.041 37.2168C74.6634 36.3184 73.9746 35.1654 73.9746 33.7578C73.9746 32.3203 74.3789 30.9727 75.1875 29.7148C75.9961 28.457 77.0443 27.4388 78.332 26.6602C79.6198 25.8516 81.1172 25.1777 82.8242 24.6387C85.9388 23.6504 89.293 23.1562 92.8867 23.1562C98.9362 23.1562 103.324 24.5039 106.049 27.1992C108.804 29.8646 110.182 34.2819 110.182 40.4512L110.137 53.7031C110.137 56.9076 110.541 58.9141 111.35 59.7227C111.559 59.9323 112.218 60.2018 113.326 60.5312C116.381 61.4896 117.908 62.2233 117.908 62.7324C117.908 65.877 114.689 67.4492 108.25 67.4492C105.824 67.4492 104.237 66.9102 103.488 65.832C102.77 64.7539 102.38 62.7923 102.32 59.9473C100.973 62.373 98.9212 64.3346 96.166 65.832C93.4108 67.3294 90.4609 68.0781 87.3164 68.0781C84.1719 68.0781 81.5065 67.6738 79.3203 66.8652C77.1341 66.0566 75.3522 64.7539 73.9746 62.957C72.627 61.1302 71.9531 59.1686 71.9531 57.0723C71.9531 54.9759 72.1927 53.2988 72.6719 52.041C73.151 50.7533 73.75 49.6751 74.4688 48.8066C75.1875 47.9382 76.1608 47.1595 77.3887 46.4707C78.6465 45.7819 79.8145 45.2428 80.8926 44.8535C81.9707 44.4342 83.3633 44.0599 85.0703 43.7305C87.5859 43.2513 89.6973 42.9219 91.4043 42.7422C93.1113 42.5326 93.9948 42.4128 94.0547 42.3828C94.2344 42.3529 95.2526 42.248 97.1094 42.0684C98.9961 41.8587 100.479 41.4544 101.557 40.8555C101.557 35.1654 100.793 31.4518 99.2656 29.7148C97.918 28.2174 95.7018 27.4688 92.6172 27.4688C89.5326 27.4688 87.2116 28.2624 85.6543 29.8496C84.127 31.4069 83.3633 33.8926 83.3633 37.3066L83.4082 38.2949C82.1504 38.4447 80.9525 38.5195 79.8145 38.5195ZM101.557 44.8984C99.5202 45.6471 97.2142 46.1712 94.6387 46.4707C92.0931 46.7402 90.0866 47.0697 88.6191 47.459C87.1517 47.8483 85.9238 48.3275 84.9355 48.8965C82.6595 50.2142 81.5215 52.4753 81.5215 55.6797C81.5215 60.8307 84.5163 63.4062 90.5059 63.4062C95.6868 63.4062 98.9661 60.9355 100.344 55.9941C101.152 53.179 101.557 49.4805 101.557 44.8984ZM135.652 67L131.789 67.0449C127.866 67.0449 125.44 66.446 124.512 65.248C124.092 64.709 123.883 64.0651 123.883 63.3164C123.883 62.5378 124.182 61.9987 124.781 61.6992C125.38 61.3997 126.039 61.235 126.758 61.2051C127.507 61.1751 128.18 60.9505 128.779 60.5312C129.378 60.082 129.678 59.3783 129.678 58.4199V36.2285C129.678 33.5632 129.348 31.916 128.689 31.2871C128.061 30.6582 127.521 30.2539 127.072 30.0742C126.653 29.8945 125.979 29.6699 125.051 29.4004C124.122 29.1309 123.359 28.8613 122.76 28.5918C122.191 28.3223 121.906 27.918 121.906 27.3789C121.906 24.9831 125.126 23.7852 131.564 23.7852C134.29 23.7852 136.012 24.2643 136.73 25.2227C137.479 26.151 137.854 28.3223 137.854 31.7363C138.872 29.1608 140.549 27.1393 142.885 25.6719C145.251 24.2044 147.661 23.4707 150.117 23.4707C152.603 23.4707 154.639 24.0098 156.227 25.0879C157.844 26.1361 158.652 27.4837 158.652 29.1309C158.652 30.748 158.128 32.0508 157.08 33.0391C156.032 33.9974 154.744 34.4766 153.217 34.4766C151.689 34.4766 150.372 34.0723 149.264 33.2637C148.186 32.4551 147.482 31.4069 147.152 30.1191C146.374 29.9993 145.73 29.9395 145.221 29.9395C140.549 29.9395 138.213 35.3151 138.213 46.0664V58.4199C138.213 60.1569 139.171 61.0853 141.088 61.2051C143.035 61.2949 144.008 62.0586 144.008 63.4961C144.008 65.1432 143.109 66.1615 141.312 66.5508C139.935 66.8503 138.048 67 135.652 67ZM196.477 33.2637C195.219 31.6165 193.407 30.3138 191.041 29.3555C188.705 28.3672 186.085 27.873 183.18 27.873C180.275 27.873 177.804 28.7116 175.768 30.3887C171.814 33.653 169.838 38.4746 169.838 44.8535C169.838 49.7949 171.171 53.9876 173.836 57.4316C176.531 60.8457 180.02 62.5527 184.303 62.5527C188.615 62.5527 191.715 61.6693 193.602 59.9023C195.518 58.1055 196.477 55.1406 196.477 51.0078V33.2637ZM184.078 23.0215C186.055 23.0215 188.256 23.3509 190.682 24.0098C193.137 24.6387 195.069 25.3125 196.477 26.0312V10.9824C196.477 8.25716 195.398 6.78971 193.242 6.58008C193.033 6.55013 192.763 6.52018 192.434 6.49023C192.104 6.46029 191.865 6.44531 191.715 6.44531C191.565 6.41536 191.37 6.38542 191.131 6.35547C190.921 6.29557 190.757 6.23568 190.637 6.17578C190.547 6.11589 190.457 6.04102 190.367 5.95117C190.158 5.77148 190.053 5.33724 190.053 4.64844C190.053 3.95964 190.517 3.24089 191.445 2.49219C193.122 1.11458 195.383 0.425781 198.229 0.425781C201.253 0.425781 203.02 0.605469 203.529 0.964844C204.548 1.68359 205.057 2.62695 205.057 3.79492V52.9395C205.057 56.2637 205.416 58.4199 206.135 59.4082C206.883 60.3665 207.542 60.9505 208.111 61.1602C208.71 61.3698 209.219 61.5495 209.639 61.6992C210.088 61.849 210.402 61.9688 210.582 62.0586C210.762 62.1185 210.986 62.2383 211.256 62.418C211.735 62.6875 211.975 63.1068 211.975 63.6758C211.975 64.9336 211.301 65.862 209.953 66.4609C208.635 67.0299 206.868 67.3145 204.652 67.3145C202.466 67.3145 200.879 66.8952 199.891 66.0566C198.902 65.2181 198.034 63.6758 197.285 61.4297C194.829 65.7721 189.708 67.9434 181.922 67.9434C175.693 67.9434 170.617 65.877 166.693 61.7441C162.8 57.6113 160.854 52.2507 160.854 45.6621C160.854 39.0736 163.025 33.653 167.367 29.4004C171.71 25.1478 177.28 23.0215 184.078 23.0215ZM222.262 62.1035C218.129 58.0306 216.062 52.625 216.062 45.8867C216.062 39.1484 218.144 33.6829 222.307 29.4902C226.499 25.2676 231.83 23.1562 238.299 23.1562C243.42 23.1562 247.732 24.8184 251.236 28.1426C254.77 31.4368 256.537 35.5846 256.537 40.5859C256.537 43.0117 254.62 44.2246 250.787 44.2246H224.777C224.837 49.0762 226.41 53.1641 229.494 56.4883C232.579 59.8125 236.472 61.4746 241.174 61.4746C244.288 61.4746 247.313 60.5612 250.248 58.7344C251.805 57.776 252.794 57.2969 253.213 57.2969C253.662 57.2969 254.156 57.5215 254.695 57.9707C255.264 58.39 255.549 58.9141 255.549 59.543C255.549 61.1901 254.486 62.7174 252.359 64.125C250.263 65.5026 247.942 66.5208 245.396 67.1797C242.851 67.8685 240.62 68.2129 238.703 68.2129C231.905 68.2129 226.424 66.1764 222.262 62.1035ZM248.271 39.5078C248.212 36.0638 247.313 33.2637 245.576 31.1074C243.839 28.9512 241.294 27.873 237.939 27.873C234.615 27.873 231.695 29.071 229.18 31.4668C226.694 33.8626 225.376 36.6029 225.227 39.6875H235.738C240.41 39.6875 244.588 39.6276 248.271 39.5078ZM274.865 67L271.002 67.0449C267.079 67.0449 264.653 66.446 263.725 65.248C263.305 64.709 263.096 64.0651 263.096 63.3164C263.096 62.5378 263.395 61.9987 263.994 61.6992C264.593 61.3997 265.252 61.235 265.971 61.2051C266.719 61.1751 267.393 60.9505 267.992 60.5312C268.591 60.082 268.891 59.3783 268.891 58.4199V32.7695C268.891 31.0326 267.812 29.9844 265.656 29.625C264.159 29.3854 263.245 29.1309 262.916 28.8613C262.617 28.5618 262.467 28.0527 262.467 27.334C262.467 26.5853 262.991 25.9115 264.039 25.3125C265.806 24.2344 268.022 23.6953 270.688 23.6953C273.383 23.6953 275.105 24.0846 275.854 24.8633C276.632 25.612 277.021 27.304 277.021 29.9395C281.124 25.2975 286.77 22.9766 293.957 22.9766C299.797 22.9766 303.93 24.5788 306.355 27.7832C308.811 30.9577 310.039 35.7793 310.039 42.248V58.4199C310.039 60.1569 310.997 61.0853 312.914 61.2051C314.861 61.2949 315.834 62.0586 315.834 63.4961C315.834 65.1133 314.906 66.1315 313.049 66.5508C311.671 66.8503 309.77 67 307.344 67L303.48 67.0449C299.557 67.0449 297.132 66.446 296.203 65.248C295.784 64.709 295.574 64.0651 295.574 63.3164C295.574 62.5378 295.874 61.9987 296.473 61.6992C297.072 61.3997 297.73 61.235 298.449 61.2051C299.198 61.1751 299.872 60.9505 300.471 60.5312C301.07 60.082 301.369 59.3783 301.369 58.4199V45.3477C301.369 39.7773 300.725 35.7044 299.438 33.1289C298 30.224 295.11 28.7715 290.768 28.7715C285.527 28.7715 281.963 30.1641 280.076 32.9492C278.309 35.5846 277.426 39.7923 277.426 45.5723V58.4199C277.426 60.1569 278.384 61.0853 280.301 61.2051C282.247 61.2949 283.221 62.0586 283.221 63.4961C283.221 65.1432 282.307 66.1615 280.48 66.5508C279.163 66.8503 277.291 67 274.865 67ZM401.23 63.002C401.23 64.3796 400.377 65.3978 398.67 66.0566C396.963 66.6855 395.091 67 393.055 67H392.516C388.622 67 386.152 66.8503 385.104 66.5508C384.085 66.2513 383.247 65.9518 382.588 65.6523C381.27 64.9935 380.611 63.9303 380.611 62.4629C380.611 61.804 381.405 61.4297 382.992 61.3398C384.609 61.25 385.418 60.7409 385.418 59.8125C385.418 59.4831 385.133 58.7643 384.564 57.6562H384.609L379.668 45.8867H353.209C350.005 54.332 348.402 58.929 348.402 59.6777C348.402 60.4264 348.597 60.8607 348.986 60.9805L348.941 60.9355C349.151 61.0553 349.66 61.2201 350.469 61.4297C352.475 61.9089 353.479 62.4329 353.479 63.002C353.479 65.6673 350.109 67 343.371 67C337.771 67 334.971 65.6673 334.971 63.002C334.971 62.4329 335.974 61.8639 337.98 61.2949C340.017 60.7259 341.454 59.3184 342.293 57.0723L360.486 9.5C360.187 8.69141 360.037 7.98763 360.037 7.38867C360.037 5.08268 362.388 3.92969 367.09 3.92969C370.863 3.92969 373.304 5.36719 374.412 8.24219L393.369 56.7578C394.447 59.3333 396.094 60.8008 398.311 61.1602C399.718 61.3698 400.557 61.6094 400.826 61.8789C401.096 62.1185 401.23 62.4928 401.23 63.002ZM354.961 41.5742H377.871L366.191 9.5L354.961 41.5742ZM417.672 67L413.809 67.0449C409.885 67.0449 407.46 66.446 406.531 65.248C406.112 64.709 405.902 64.0651 405.902 63.3164C405.902 62.5378 406.202 61.9987 406.801 61.6992C407.4 61.3997 408.059 61.235 408.777 61.2051C409.526 61.1751 410.2 60.9505 410.799 60.5312C411.398 60.082 411.697 59.3783 411.697 58.4199V36.2285C411.697 33.5632 411.368 31.916 410.709 31.2871C410.08 30.6582 409.541 30.2539 409.092 30.0742C408.673 29.8945 407.999 29.6699 407.07 29.4004C406.142 29.1309 405.378 28.8613 404.779 28.5918C404.21 28.3223 403.926 27.918 403.926 27.3789C403.926 24.9831 407.145 23.7852 413.584 23.7852C416.309 23.7852 418.031 24.2643 418.75 25.2227C419.499 26.151 419.873 28.3223 419.873 31.7363C420.891 29.1608 422.568 27.1393 424.904 25.6719C427.27 24.2044 429.681 23.4707 432.137 23.4707C434.622 23.4707 436.659 24.0098 438.246 25.0879C439.863 26.1361 440.672 27.4837 440.672 29.1309C440.672 30.748 440.148 32.0508 439.1 33.0391C438.051 33.9974 436.764 34.4766 435.236 34.4766C433.709 34.4766 432.391 34.0723 431.283 33.2637C430.205 32.4551 429.501 31.4069 429.172 30.1191C428.393 29.9993 427.749 29.9395 427.24 29.9395C422.568 29.9395 420.232 35.3151 420.232 46.0664V58.4199C420.232 60.1569 421.191 61.0853 423.107 61.2051C425.054 61.2949 426.027 62.0586 426.027 63.4961C426.027 65.1432 425.129 66.1615 423.332 66.5508C421.954 66.8503 420.068 67 417.672 67ZM483.438 58.2402C484.785 58.2402 485.459 58.8691 485.459 60.127C485.459 60.8158 485.249 61.3848 484.83 61.834C480.847 66.0866 475.127 68.2129 467.67 68.2129C460.213 68.2129 454.298 66.1914 449.926 62.1484C445.583 58.1055 443.412 52.7598 443.412 46.1113C443.412 41.7689 444.46 37.8457 446.557 34.3418C448.683 30.8079 451.558 28.0527 455.182 26.0762C458.835 24.0996 462.878 23.1113 467.311 23.1113C473.51 23.1113 478.286 24.7135 481.641 27.918C483.408 29.625 484.291 31.6165 484.291 33.8926C484.291 35.2402 483.722 36.3783 482.584 37.3066C481.476 38.235 480.143 38.6992 478.586 38.6992C477.029 38.6992 475.906 38.5645 475.217 38.2949C475.007 34.9108 474.303 32.3203 473.105 30.5234C471.938 28.6966 469.961 27.7832 467.176 27.7832C462.624 27.7832 459.045 29.2357 456.439 32.1406C453.864 35.0456 452.576 38.9538 452.576 43.8652C452.576 48.7767 454.223 53.0443 457.518 56.668C460.842 60.2917 465.02 62.1035 470.051 62.1035C473.016 62.1035 476.654 61.0553 480.967 58.959C481.895 58.4798 482.719 58.2402 483.438 58.2402ZM535.637 67L531.773 67.0449C527.85 67.0449 525.424 66.446 524.496 65.248C524.077 64.709 523.867 64.0651 523.867 63.3164C523.867 62.5378 524.167 61.9987 524.766 61.6992C525.365 61.3997 526.023 61.235 526.742 61.2051C527.491 61.1751 528.165 60.9505 528.764 60.5312C529.363 60.082 529.662 59.3783 529.662 58.4199L529.707 45.3477C529.707 39.8372 529.048 35.7793 527.73 33.1738C526.293 30.2389 523.298 28.7715 518.746 28.7715C513.954 28.7715 510.6 30.2839 508.684 33.3086C506.947 36.1237 506.078 40.2116 506.078 45.5723V58.4199C506.078 60.1569 507.036 61.0853 508.953 61.2051C510.9 61.2949 511.873 62.0586 511.873 63.4961C511.873 65.1432 510.96 66.1615 509.133 66.5508C507.815 66.8503 505.943 67 503.518 67L499.654 67.0449C495.731 67.0449 493.305 66.446 492.377 65.248C491.958 64.709 491.748 64.0651 491.748 63.3164C491.748 62.5378 492.048 61.9987 492.646 61.6992C493.245 61.3997 493.904 61.235 494.623 61.2051C495.372 61.1751 496.046 60.9505 496.645 60.5312C497.243 60.082 497.543 59.3783 497.543 58.4199V9.5C497.543 7.76302 496.465 6.71484 494.309 6.35547C492.811 6.11589 491.898 5.86133 491.568 5.5918C491.269 5.29232 491.119 4.81315 491.119 4.1543C491.119 3.49544 491.434 2.89648 492.062 2.35742C492.691 1.81836 493.515 1.41406 494.533 1.14453C496.33 0.665365 498.337 0.425781 500.553 0.425781C504.266 0.425781 506.123 1.54883 506.123 3.79492V29.8945C510.196 25.2826 515.347 22.9766 521.576 22.9766C527.805 22.9766 532.133 24.5788 534.559 27.7832C537.014 30.9577 538.242 35.7793 538.242 42.248L538.197 58.4199C538.197 60.1569 539.156 61.0853 541.072 61.2051C543.019 61.2949 543.992 62.0586 543.992 63.4961C543.992 65.1432 543.094 66.1615 541.297 66.5508C539.919 66.8503 538.033 67 535.637 67ZM554.459 10.623C554.459 9.30534 555.088 8.07747 556.346 6.93945C557.633 5.77148 559.026 5.1875 560.523 5.1875C562.051 5.1875 563.518 5.65169 564.926 6.58008C566.363 7.50846 567.082 8.73633 567.082 10.2637C567.082 11.791 566.483 13.0788 565.285 14.127C564.087 15.1452 562.62 15.6543 560.883 15.6543C559.146 15.6543 557.633 15.1751 556.346 14.2168C555.088 13.2585 554.459 12.0605 554.459 10.623ZM563.848 67L559.984 67.0449C556.061 67.0449 553.635 66.446 552.707 65.248C552.288 64.709 552.078 64.0651 552.078 63.3164C552.078 62.5378 552.378 61.9987 552.977 61.6992C553.576 61.3997 554.234 61.235 554.953 61.2051C555.702 61.1751 556.376 60.9505 556.975 60.5312C557.574 60.082 557.873 59.3783 557.873 58.4199V34.252C557.873 31.5267 556.81 30.0592 554.684 29.8496C554.474 29.8197 554.204 29.7897 553.875 29.7598C553.546 29.7298 553.306 29.7148 553.156 29.7148C553.007 29.6849 552.812 29.6549 552.572 29.625C552.363 29.5651 552.198 29.5052 552.078 29.4453C551.988 29.3854 551.883 29.3105 551.764 29.2207C551.554 29.071 551.449 28.6517 551.449 27.9629C551.449 27.2441 551.898 26.5104 552.797 25.7617C554.504 24.3841 556.78 23.6953 559.625 23.6953C562.26 23.6953 563.803 23.8001 564.252 24.0098C564.731 24.2194 565.135 24.444 565.465 24.6836C566.094 25.1029 566.408 25.8965 566.408 27.0645V58.4199C566.408 60.1569 567.367 61.0853 569.283 61.2051C571.23 61.2949 572.203 62.0586 572.203 63.4961C572.203 65.1432 571.305 66.1615 569.508 66.5508C568.13 66.8503 566.243 67 563.848 67ZM619.012 46.291C619.012 39.373 617.005 34.3418 612.992 31.1973C610.896 29.5801 608.395 28.7715 605.49 28.7715C596.895 28.7715 592.598 33.6081 592.598 43.2812V58.0605C595.023 61.2051 599.201 62.7773 605.131 62.7773C609.443 62.7773 612.827 61.235 615.283 58.1504C617.769 55.0358 619.012 51.0827 619.012 46.291ZM590.037 85.418L586.174 85.4629C582.251 85.4629 579.825 84.8639 578.896 83.666C578.477 83.127 578.268 82.4681 578.268 81.6895C578.268 80.9408 578.567 80.4167 579.166 80.1172C579.765 79.8177 580.424 79.653 581.143 79.623C581.891 79.5931 582.565 79.3535 583.164 78.9043C583.763 78.485 584.062 77.7962 584.062 76.8379V36.3184C584.062 34.1621 583.898 32.6797 583.568 31.8711C583.269 31.0326 582.565 30.4036 581.457 29.9844C581.337 29.9245 580.738 29.7747 579.66 29.5352C577.414 28.9961 576.291 28.2474 576.291 27.2891C576.291 24.9531 579.301 23.7852 585.32 23.7852C587.866 23.7852 589.648 24.0846 590.666 24.6836C591.684 25.2826 592.193 26.5703 592.193 28.5469C592.193 29.1458 592.178 29.5951 592.148 29.8945C594.454 27.6484 596.775 25.9414 599.111 24.7734C601.447 23.6055 604.427 23.0215 608.051 23.0215C611.674 23.0215 615.059 24.0397 618.203 26.0762C621.378 28.1126 623.773 30.8079 625.391 34.1621C627.008 37.4863 627.816 41.1999 627.816 45.3027C627.816 51.8014 625.69 57.1621 621.438 61.3848C617.185 65.6074 611.779 67.7188 605.221 67.7188C601.537 67.7188 597.329 66.5059 592.598 64.0801V76.8379C592.598 78.5749 593.556 79.4883 595.473 79.5781C597.419 79.6979 598.393 80.4766 598.393 81.9141C598.393 83.5612 597.479 84.5794 595.652 84.9688C594.335 85.2682 592.463 85.418 590.037 85.418ZM637.07 62.1035C632.938 58.0306 630.871 52.625 630.871 45.8867C630.871 39.1484 632.952 33.6829 637.115 29.4902C641.308 25.2676 646.639 23.1562 653.107 23.1562C658.229 23.1562 662.541 24.8184 666.045 28.1426C669.579 31.4368 671.346 35.5846 671.346 40.5859C671.346 43.0117 669.429 44.2246 665.596 44.2246H639.586C639.646 49.0762 641.218 53.1641 644.303 56.4883C647.387 59.8125 651.281 61.4746 655.982 61.4746C659.097 61.4746 662.122 60.5612 665.057 58.7344C666.614 57.776 667.602 57.2969 668.021 57.2969C668.471 57.2969 668.965 57.5215 669.504 57.9707C670.073 58.39 670.357 58.9141 670.357 59.543C670.357 61.1901 669.294 62.7174 667.168 64.125C665.072 65.5026 662.751 66.5208 660.205 67.1797C657.66 67.8685 655.428 68.2129 653.512 68.2129C646.714 68.2129 641.233 66.1764 637.07 62.1035ZM663.08 39.5078C663.02 36.0638 662.122 33.2637 660.385 31.1074C658.648 28.9512 656.102 27.873 652.748 27.873C649.424 27.873 646.504 29.071 643.988 31.4668C641.503 33.8626 640.185 36.6029 640.035 39.6875H650.547C655.219 39.6875 659.396 39.6276 663.08 39.5078ZM689.719 67L685.855 67.0449C681.932 67.0449 679.507 66.446 678.578 65.248C678.159 64.709 677.949 64.0651 677.949 63.3164C677.949 62.5378 678.249 61.9987 678.848 61.6992C679.447 61.3997 680.105 61.235 680.824 61.2051C681.543 61.1751 682.202 60.9505 682.801 60.5312C683.4 60.082 683.699 59.3783 683.699 58.4199V10.9824C683.699 8.25716 682.621 6.78971 680.465 6.58008C680.255 6.55013 679.986 6.52018 679.656 6.49023C679.327 6.46029 679.087 6.44531 678.938 6.44531C678.788 6.41536 678.593 6.38542 678.354 6.35547C678.144 6.29557 677.979 6.23568 677.859 6.17578C677.77 6.11589 677.68 6.04102 677.59 5.95117C677.38 5.77148 677.275 5.33724 677.275 4.64844C677.275 3.95964 677.74 3.24089 678.668 2.49219C680.345 1.11458 682.606 0.425781 685.451 0.425781C688.476 0.425781 690.243 0.605469 690.752 0.964844C691.77 1.68359 692.279 2.62695 692.279 3.79492V58.4199C692.279 60.1569 693.238 61.0853 695.154 61.2051C697.101 61.2949 698.074 62.0586 698.074 63.4961C698.074 65.1432 697.176 66.1615 695.379 66.5508C694.001 66.8503 692.115 67 689.719 67ZM711.955 38.5195C710.847 38.5195 709.589 38.0853 708.182 37.2168C706.804 36.3184 706.115 35.1654 706.115 33.7578C706.115 32.3203 706.52 30.9727 707.328 29.7148C708.137 28.457 709.185 27.4388 710.473 26.6602C711.76 25.8516 713.258 25.1777 714.965 24.6387C718.079 23.6504 721.434 23.1562 725.027 23.1562C731.077 23.1562 735.464 24.5039 738.189 27.1992C740.945 29.8646 742.322 34.2819 742.322 40.4512L742.277 53.7031C742.277 56.9076 742.682 58.9141 743.49 59.7227C743.7 59.9323 744.359 60.2018 745.467 60.5312C748.521 61.4896 750.049 62.2233 750.049 62.7324C750.049 65.877 746.829 67.4492 740.391 67.4492C737.965 67.4492 736.378 66.9102 735.629 65.832C734.91 64.7539 734.521 62.7923 734.461 59.9473C733.113 62.373 731.062 64.3346 728.307 65.832C725.551 67.3294 722.602 68.0781 719.457 68.0781C716.312 68.0781 713.647 67.6738 711.461 66.8652C709.275 66.0566 707.493 64.7539 706.115 62.957C704.768 61.1302 704.094 59.1686 704.094 57.0723C704.094 54.9759 704.333 53.2988 704.812 52.041C705.292 50.7533 705.891 49.6751 706.609 48.8066C707.328 47.9382 708.301 47.1595 709.529 46.4707C710.787 45.7819 711.955 45.2428 713.033 44.8535C714.111 44.4342 715.504 44.0599 717.211 43.7305C719.727 43.2513 721.838 42.9219 723.545 42.7422C725.252 42.5326 726.135 42.4128 726.195 42.3828C726.375 42.3529 727.393 42.248 729.25 42.0684C731.137 41.8587 732.619 41.4544 733.697 40.8555C733.697 35.1654 732.934 31.4518 731.406 29.7148C730.059 28.2174 727.842 27.4688 724.758 27.4688C721.673 27.4688 719.352 28.2624 717.795 29.8496C716.268 31.4069 715.504 33.8926 715.504 37.3066L715.549 38.2949C714.291 38.4447 713.093 38.5195 711.955 38.5195ZM733.697 44.8984C731.661 45.6471 729.355 46.1712 726.779 46.4707C724.234 46.7402 722.227 47.0697 720.76 47.459C719.292 47.8483 718.064 48.3275 717.076 48.8965C714.8 50.2142 713.662 52.4753 713.662 55.6797C713.662 60.8307 716.657 63.4062 722.646 63.4062C727.827 63.4062 731.107 60.9355 732.484 55.9941C733.293 53.179 733.697 49.4805 733.697 44.8984ZM796.273 39.0586C796.273 41.7839 795.24 44.1797 793.174 46.2461C789.131 50.2891 783.366 52.3105 775.879 52.3105C774.411 52.3105 772.854 52.1758 771.207 51.9062C769.56 51.6068 768.527 51.4271 768.107 51.3672V51.3223C765.831 53.2389 764.693 54.916 764.693 56.3535C764.693 57.6712 765.337 58.5547 766.625 59.0039C768.452 59.6628 770.997 60.0221 774.262 60.082C777.526 60.1419 780.072 60.2018 781.898 60.2617C783.725 60.2917 785.702 60.3815 787.828 60.5312C789.954 60.681 791.826 60.9805 793.443 61.4297C795.061 61.849 796.573 62.418 797.98 63.1367C800.855 64.6341 802.293 67.1797 802.293 70.7734C802.293 73.4688 801.589 75.8496 800.182 77.916C798.774 79.9824 796.887 81.6146 794.521 82.8125C789.82 85.2383 784.219 86.4512 777.721 86.4512C772.09 86.4512 767.134 85.6725 762.852 84.1152C760.546 83.2767 758.719 82.0339 757.371 80.3867C756.023 78.7695 755.35 76.8229 755.35 74.5469C755.35 70.2943 757.491 67.015 761.773 64.709C760.635 63.6009 759.857 62.5527 759.438 61.5645C759.048 60.5762 758.854 59.4232 758.854 58.1055C758.854 56.7878 758.973 55.7695 759.213 55.0508C759.452 54.332 759.827 53.6732 760.336 53.0742C760.995 52.2956 762.223 51.2324 764.02 49.8848C761.204 48.4772 759.048 46.9049 757.551 45.168C756.083 43.401 755.35 41.1849 755.35 38.5195C755.35 35.8242 755.964 33.4883 757.191 31.5117C758.449 29.5352 760.096 27.9629 762.133 26.7949C766.266 24.429 770.878 23.2461 775.969 23.2461C777.406 23.2461 780.087 23.6204 784.01 24.3691C787.963 25.0879 790.179 25.4473 790.658 25.4473C793.324 25.4473 794.881 24.1146 795.33 21.4492C799.163 21.4492 801.08 22.9766 801.08 26.0312C801.08 27.4987 800.631 28.6667 799.732 29.5352C798.864 30.3737 797.846 30.793 796.678 30.793C795.54 30.793 794.312 30.7331 792.994 30.6133C793.863 31.362 794.626 32.5299 795.285 34.1172C795.944 35.7044 796.273 37.3516 796.273 39.0586ZM776.148 27.1094C772.914 27.1094 770.159 28.0527 767.883 29.9395C765.637 31.8262 764.514 34.3118 764.514 37.3965C764.514 40.4811 765.667 43.0117 767.973 44.9883C770.309 46.9648 773.154 47.9531 776.508 47.9531C779.862 47.9531 782.572 47.0397 784.639 45.2129C786.735 43.3561 787.783 40.9453 787.783 37.9805C787.783 35.0156 786.645 32.4701 784.369 30.3438C782.123 28.1875 779.383 27.1094 776.148 27.1094ZM776.912 81.1953C781.524 81.1953 785.028 80.7012 787.424 79.7129C789.82 78.7546 791.482 77.6315 792.41 76.3438C793.339 75.0859 793.803 73.5736 793.803 71.8066C793.803 68.123 786.645 66.2812 772.33 66.2812C768.287 66.2812 766.266 66.2363 766.266 66.1465C763.99 68.4525 762.852 70.6536 762.852 72.75C762.852 78.3802 767.538 81.1953 776.912 81.1953ZM827.449 68.123C820.681 68.123 815.23 65.9967 811.098 61.7441C806.965 57.4616 804.898 52.041 804.898 45.4824C804.898 41.11 805.992 37.2168 808.178 33.8027C810.364 30.3887 813.314 27.7832 817.027 25.9863C820.771 24.1595 824.934 23.2461 829.516 23.2461C836.104 23.2461 841.54 25.2975 845.822 29.4004C850.105 33.5033 852.246 38.804 852.246 45.3027C852.246 49.7949 851.138 53.793 848.922 57.2969C846.736 60.7708 843.771 63.4512 840.027 65.3379C836.284 67.1947 832.091 68.123 827.449 68.123ZM829.291 63.1367C833.753 63.1367 837.227 61.6243 839.713 58.5996C842.229 55.5749 843.486 51.5469 843.486 46.5156C843.486 41.4844 842.049 37.1419 839.174 33.4883C836.299 29.8346 832.6 28.0078 828.078 28.0078C823.586 28.0078 820.127 29.5501 817.701 32.6348C815.275 35.7194 814.062 39.7624 814.062 44.7637C814.062 49.765 815.485 54.0775 818.33 57.7012C821.175 61.3249 824.829 63.1367 829.291 63.1367Z" fill="#306B21"/>
</svg>
