<svg width="32" height="32" viewBox="0 0 32 32" fill="none" xmlns="http://www.w3.org/2000/svg">
<circle cx="16" cy="16" r="16" fill="#D4DD7D"/>
<path d="M3.24805 19.3281C2.64453 18.373 2.34277 17.2627 2.34277 15.9971C2.34277 14.7314 2.65918 13.6064 3.29199 12.6221C3.9248 11.6377 4.77734 10.8848 5.84961 10.3633C6.92773 9.8418 8.12598 9.58105 9.44434 9.58105C10.5752 9.58105 11.6445 9.75684 12.6523 10.1084C13.168 10.29 13.5869 10.5508 13.9092 10.8906C14.2373 11.2246 14.4014 11.6084 14.4014 12.042C14.4014 12.4756 14.2666 12.7979 13.9971 13.0088C13.7275 13.2197 13.4082 13.3252 13.0391 13.3252C12.6758 13.3252 12.415 13.2959 12.2568 13.2373C12.1924 12.3291 11.9287 11.6523 11.4658 11.207C11.0029 10.7559 10.3145 10.5303 9.40039 10.5303C7.85938 10.5303 6.63184 10.9932 5.71777 11.9189C4.80957 12.8447 4.35547 14.0518 4.35547 15.54C4.35547 16.542 4.57227 17.4561 5.00586 18.2822C5.43945 19.1025 6.0459 19.7529 6.8252 20.2334C7.61035 20.7139 8.49219 20.9541 9.4707 20.9541C10.127 20.9541 10.7129 20.8779 11.2285 20.7256C12.2012 20.4385 12.6934 20.0781 12.7051 19.6445C12.7109 19.4863 12.7139 19.293 12.7139 19.0645V18.0186C12.7139 17.9248 12.6963 17.7725 12.6611 17.5615C12.626 17.3506 12.6025 17.1982 12.5908 17.1045C12.585 17.0107 12.5059 16.9199 12.3535 16.832C12.207 16.7441 12.0488 16.6826 11.8789 16.6475C11.4219 16.5537 11.1934 16.4365 11.1934 16.2959C11.1934 16.1553 11.2227 16.0381 11.2812 15.9443C11.3457 15.8447 11.4424 15.7656 11.5713 15.707C11.7061 15.6484 11.8379 15.6016 11.9668 15.5664C12.0957 15.5254 12.2686 15.4961 12.4854 15.4785C12.79 15.4609 13.2412 15.4521 13.8389 15.4521C14.4424 15.4521 14.8584 15.4727 15.0869 15.5137C15.6377 15.6191 15.9131 15.874 15.9131 16.2783C15.9131 16.3662 15.8721 16.4277 15.79 16.4629C15.708 16.498 15.6436 16.5244 15.5967 16.542C15.5557 16.5537 15.5 16.5684 15.4297 16.5859C14.9434 16.7031 14.6504 16.8672 14.5508 17.0781C14.457 17.2891 14.4131 17.6611 14.4189 18.1943L14.4453 20.6465C14.2344 20.7109 13.9209 20.8574 13.5049 21.0859C13.0889 21.3086 12.7988 21.4551 12.6348 21.5254C11.5098 22 10.3291 22.2373 9.09277 22.2373C7.8623 22.2373 6.73145 21.9912 5.7002 21.499C4.66895 21.001 3.85156 20.2773 3.24805 19.3281ZM28.666 21.2178C28.666 21.4873 28.499 21.6865 28.165 21.8154C27.8311 21.9385 27.4648 22 27.0664 22H26.9609C26.1992 22 25.7158 21.9707 25.5107 21.9121C25.3115 21.8535 25.1475 21.7949 25.0186 21.7363C24.7607 21.6074 24.6318 21.3994 24.6318 21.1123C24.6318 20.9834 24.7871 20.9102 25.0977 20.8926C25.4141 20.875 25.5723 20.7754 25.5723 20.5938C25.5723 20.5293 25.5166 20.3887 25.4053 20.1719H25.4141L24.4473 17.8691H19.2705C18.6436 19.5215 18.3301 20.4209 18.3301 20.5674C18.3301 20.7139 18.3682 20.7988 18.4443 20.8223L18.4355 20.8135C18.4766 20.8369 18.5762 20.8691 18.7344 20.9102C19.127 21.0039 19.3232 21.1064 19.3232 21.2178C19.3232 21.7393 18.6641 22 17.3457 22C16.25 22 15.7021 21.7393 15.7021 21.2178C15.7021 21.1064 15.8984 20.9951 16.291 20.8838C16.6895 20.7725 16.9707 20.4971 17.1348 20.0576L20.6943 10.75C20.6357 10.5918 20.6064 10.4541 20.6064 10.3369C20.6064 9.88574 21.0664 9.66016 21.9863 9.66016C22.7246 9.66016 23.2021 9.94141 23.4189 10.5039L27.1279 19.9961C27.3389 20.5 27.6611 20.7871 28.0947 20.8574C28.3701 20.8984 28.5342 20.9453 28.5869 20.998C28.6396 21.0449 28.666 21.1182 28.666 21.2178ZM19.6133 17.0254H24.0957L21.8105 10.75L19.6133 17.0254Z" fill="#306B21"/>
</svg>
